<?xml version="1.0" encoding="iso-8859-1"?>
<!-- Generator: Adobe Illustrator 18.1.1, SVG Export Plug-In . SVG Version: 6.00 Build 0)  -->
<svg version="1.1" id="Capa_1" xmlns="http://www.w3.org/2000/svg" xmlns:xlink="http://www.w3.org/1999/xlink" x="0px" y="0px"
	 viewBox="0 0 474.026 474.026" style="enable-background:new 0 0 474.026 474.026;" xml:space="preserve">
<g>
	<g>
		<g>
			<path style="fill:#010002;" d="M356.495,74.937h-229.6c-24.093,0-43.732,19.622-43.732,43.732v229.608
				c0,24.134,19.639,43.74,43.732,43.74h229.6c24.109,0,43.74-19.606,43.74-43.74V118.661
				C400.235,94.56,380.604,74.937,356.495,74.937z"/>
		</g>
		<g>
			<path style="fill:#010002;" d="M424.661,143.518h42.285c3.902,0,7.08-3.162,7.08-7.064c0-3.902-3.178-7.08-7.08-7.08h-42.285
				c-3.894,0-7.064,3.178-7.064,7.08C417.597,140.348,420.768,143.518,424.661,143.518z"/>
		</g>
		<g>
			<path style="fill:#010002;" d="M466.946,167.888h-42.285c-3.894,0-7.064,3.162-7.064,7.08c0,3.894,3.178,7.064,7.064,7.064
				h42.285c3.902,0,7.08-3.178,7.08-7.064C474.026,171.05,470.856,167.888,466.946,167.888z"/>
		</g>
		<g>
			<path style="fill:#010002;" d="M466.946,207.132h-42.285c-3.894,0-7.064,3.178-7.064,7.064c0,3.902,3.178,7.096,7.064,7.096
				h42.285c3.902,0,7.08-3.186,7.08-7.096C474.026,210.311,470.856,207.132,466.946,207.132z"/>
		</g>
		<g>
			<path style="fill:#010002;" d="M466.946,245.646h-42.285c-3.894,0-7.064,3.178-7.064,7.088c0,3.894,3.178,7.064,7.064,7.064
				h42.285c3.902,0,7.08-3.178,7.08-7.064C474.026,248.816,470.856,245.646,466.946,245.646z"/>
		</g>
		<g>
			<path style="fill:#010002;" d="M466.946,281.184h-42.285c-3.894,0-7.064,3.178-7.064,7.064s3.178,7.064,7.064,7.064h42.285
				c3.902,0,7.08-3.178,7.08-7.064S470.856,281.184,466.946,281.184z"/>
		</g>
		<g>
			<path style="fill:#010002;" d="M466.946,319.689h-42.285c-3.894,0-7.064,3.178-7.064,7.088c0,3.894,3.178,7.039,7.064,7.039
				h42.285c3.902,0,7.08-3.146,7.08-7.039C474.026,322.867,470.856,319.689,466.946,319.689z"/>
		</g>
		<g>
			<path style="fill:#010002;" d="M49.357,129.366H7.064c-3.894,0-7.064,3.178-7.064,7.08c0,3.902,3.178,7.064,7.064,7.064h42.293
				c3.894,0,7.072-3.162,7.072-7.064C56.42,132.545,53.242,129.366,49.357,129.366z"/>
		</g>
		<g>
			<path style="fill:#010002;" d="M49.357,167.888H7.064c-3.894,0-7.064,3.162-7.064,7.08c0,3.894,3.178,7.064,7.064,7.064h42.293
				c3.894,0,7.072-3.178,7.072-7.064C56.42,171.05,53.242,167.888,49.357,167.888z"/>
		</g>
		<g>
			<path style="fill:#010002;" d="M49.357,207.132H7.064c-3.894,0-7.064,3.178-7.064,7.064c0,3.902,3.178,7.096,7.064,7.096h42.293
				c3.894,0,7.072-3.186,7.072-7.096C56.42,210.311,53.242,207.132,49.357,207.132z"/>
		</g>
		<g>
			<path style="fill:#010002;" d="M49.357,245.646H7.064c-3.894,0-7.064,3.178-7.064,7.088c0,3.894,3.178,7.064,7.064,7.064h42.293
				c3.894,0,7.072-3.178,7.072-7.064C56.42,248.816,53.242,245.646,49.357,245.646z"/>
		</g>
		<g>
			<path style="fill:#010002;" d="M49.357,281.184H7.064c-3.894,0-7.064,3.178-7.064,7.064s3.178,7.064,7.064,7.064h42.293
				c3.894,0,7.072-3.178,7.072-7.064S53.242,281.184,49.357,281.184z"/>
		</g>
		<g>
			<path style="fill:#010002;" d="M49.357,319.689H7.064c-3.894,0-7.064,3.178-7.064,7.088c0,3.894,3.178,7.039,7.064,7.039h42.293
				c3.894,0,7.072-3.146,7.072-7.039C56.42,322.867,53.242,319.689,49.357,319.689z"/>
		</g>
		<g>
			<path style="fill:#010002;" d="M336.864,417.606c-3.894,0-7.072,3.178-7.072,7.064v42.293c0,3.894,3.186,7.064,7.072,7.064
				c3.894,0,7.072-3.178,7.072-7.064v-42.293C343.936,420.776,340.766,417.606,336.864,417.606z"/>
		</g>
		<g>
			<path style="fill:#010002;" d="M298.343,417.606c-3.877,0-7.047,3.178-7.047,7.064v42.293c0,3.894,3.178,7.064,7.047,7.064
				c3.902,0,7.08-3.178,7.08-7.064v-42.293C305.423,420.776,302.245,417.606,298.343,417.606z"/>
		</g>
		<g>
			<path style="fill:#010002;" d="M259.123,417.606c-3.91,0-7.072,3.178-7.072,7.064v42.293c0,3.894,3.162,7.064,7.072,7.064
				c3.885,0,7.056-3.178,7.056-7.064v-42.293C266.178,420.776,263,417.606,259.123,417.606z"/>
		</g>
		<g>
			<path style="fill:#010002;" d="M220.601,417.606c-3.902,0-7.08,3.178-7.08,7.064v42.293c0,3.894,3.178,7.064,7.08,7.064
				c3.894,0,7.056-3.178,7.056-7.064v-42.293C227.657,420.776,224.495,417.606,220.601,417.606z"/>
		</g>
		<g>
			<path style="fill:#010002;" d="M185.063,417.606c-3.902,0-7.08,3.178-7.08,7.064v42.293c0,3.894,3.178,7.064,7.08,7.064
				c3.894,0,7.056-3.178,7.056-7.064v-42.293C192.119,420.776,188.949,417.606,185.063,417.606z"/>
		</g>
		<g>
			<path style="fill:#010002;" d="M146.558,417.606c-3.918,0-7.08,3.178-7.08,7.064v42.293c0,3.894,3.162,7.064,7.08,7.064
				c3.894,0,7.056-3.178,7.056-7.064v-42.293C153.614,420.776,150.452,417.606,146.558,417.606z"/>
		</g>
		<g>
			<path style="fill:#010002;" d="M336.864,56.404c3.894,0,7.072-3.162,7.072-7.039V7.064c0-3.902-3.178-7.064-7.072-7.064
				s-7.072,3.162-7.072,7.064v42.309C329.793,53.242,332.979,56.404,336.864,56.404z"/>
		</g>
		<g>
			<path style="fill:#010002;" d="M298.343,56.404c3.902,0,7.08-3.162,7.08-7.039V7.064c0-3.902-3.178-7.064-7.08-7.064
				c-3.877,0-7.047,3.162-7.047,7.064v42.309C291.296,53.242,294.466,56.404,298.343,56.404z"/>
		</g>
		<g>
			<path style="fill:#010002;" d="M259.123,56.404c3.885,0,7.056-3.162,7.056-7.039V7.064C266.178,3.162,263,0,259.123,0
				c-3.91,0-7.072,3.162-7.072,7.064v42.309C252.051,53.242,255.205,56.404,259.123,56.404z"/>
		</g>
		<g>
			<path style="fill:#010002;" d="M220.601,56.404c3.894,0,7.056-3.162,7.056-7.039V7.064c0-3.902-3.162-7.064-7.056-7.064
				c-3.902,0-7.08,3.162-7.08,7.064v42.309C213.521,53.242,216.7,56.404,220.601,56.404z"/>
		</g>
		<g>
			<path style="fill:#010002;" d="M185.063,56.404c3.894,0,7.056-3.162,7.056-7.039V7.064c0-3.902-3.162-7.064-7.056-7.064
				c-3.902,0-7.08,3.162-7.08,7.064v42.309C177.983,53.242,181.162,56.404,185.063,56.404z"/>
		</g>
		<g>
			<path style="fill:#010002;" d="M146.558,56.404c3.894,0,7.056-3.162,7.056-7.039V7.064c0-3.902-3.162-7.064-7.056-7.064
				c-3.918,0-7.08,3.162-7.08,7.064v42.309C139.478,53.242,142.64,56.404,146.558,56.404z"/>
		</g>
	</g>
</g>
<g>
</g>
<g>
</g>
<g>
</g>
<g>
</g>
<g>
</g>
<g>
</g>
<g>
</g>
<g>
</g>
<g>
</g>
<g>
</g>
<g>
</g>
<g>
</g>
<g>
</g>
<g>
</g>
<g>
</g>
</svg>
