<?xml version="1.0" encoding="utf-8"?>
<!-- Svg Vector Icons : http://www.onlinewebfonts.com/icon -->
<!DOCTYPE svg PUBLIC "-//W3C//DTD SVG 1.1//EN" "http://www.w3.org/Graphics/SVG/1.1/DTD/svg11.dtd">
<svg version="1.1" xmlns="http://www.w3.org/2000/svg" xmlns:xlink="http://www.w3.org/1999/xlink" x="0px" y="0px" viewBox="0 0 1000 1000" enable-background="new 0 0 1000 1000" xml:space="preserve">
<metadata> Svg Vector Icons : http://www.onlinewebfonts.com/icon </metadata>
<g><g transform="translate(0.000000,512.000000) scale(0.100000,-0.100000)"><path d="M4622.5,5010.7c-172.5-17.3-533-76.7-544.5-88.2c-3.8-3.8,13.4-7.7,38.3-7.7c149.5-1.9,628.8-42.2,784.1-69c255-42.2,651.8-147.6,885.7-233.9c157.2-59.4,692.1-297.1,722.8-322.1c3.8-3.8-42.2-59.4-101.6-126.5c-57.5-67.1-151.5-195.5-205.1-289.5c-72.9-120.8-109.3-164.9-130.4-157.2c-337.4,103.5-715.1,149.5-1133,138c-279.9-7.7-636.5-49.8-665.2-76.7c-3.8-3.8,116.9-13.4,266.5-19.2c322.1-11.5,605.8-63.3,914.5-164.9c226.2-74.8,538.7-209,538.7-230c0-7.7-86.3-287.6-191.7-623.1c-107.4-335.5-189.8-619.2-187.9-628.8c3.8-9.6,76.7-46,161-78.6c302.9-122.7,611.6-350.8,811-598.1c241.6-301,350.8-542.5,450.5-991.2c5.7-26.8,1850,949,1980.4,1046.7c324,247.3,565.5,676.7,648,1150.3c136.1,789.9-264.6,1583.5-989.2,1957.4c-477.4,247.3-1041,274.1-1554.8,72.8l-130.3-49.8l-214.7,82.4c-354.7,138-684.4,224.3-1060.1,279.9C5487.1,5018.4,4839.1,5033.7,4622.5,5010.7z"/><path d="M1848.4,4790.2C1072,4642.6,479.6,4044.5,337.7,3262.3c-30.7-166.8-26.8-515.7,7.7-676.7c15.3-74.8,55.6-210.9,88.2-302.9l61.4-168.7l-95.9-253.1C287.9,1567.6,184.4,1168.8,134.5,841C107.7,668.4,100,503.6,100,179.6c0-410.3,11.5-544.5,78.6-910.6l15.3-76.7l11.5,105.4c7.7,57.5,13.4,162.9,15.3,233.9c5.8,350.8,132.3,975.8,279.9,1366.9c55.6,151.4,302.9,703.6,327.8,736.2c3.8,3.8,57.5-40.3,122.7-95.9c116.9-105.4,393-283.7,437.1-285.6c28.8,0,30.7,11.5-24.9-199.4c-82.4-322.1-111.2-594.3-99.7-979.6c7.7-287.6,49.8-646.1,76.7-674.8c3.8-3.8,13.4,120.8,19.2,276.1C1373,7,1432.4,321.4,1537.8,622.4c76.7,220.5,197.5,496.5,216.6,496.5c7.7,0,289.5-86.3,625-191.7c335.5-105.4,619.2-189.8,628.8-186c9.6,1.9,40.3,67.1,70.9,143.8c255,653.7,862.7,1144.5,1575.9,1273c26.8,3.8-59.4,185.9-452.4,939.4c-268.4,513.8-527.2,985.4-575.1,1046.7c-222.4,291.4-575.1,510-989.2,615.4C2423.5,4815.1,2053.5,4828.6,1848.4,4790.2z"/><path d="M4756.7,1770.8C4091.4,1667.2,3558.5,1188,3384,534.2c-57.5-214.7-59.4-607.7-1.9-818.6c140-513.8,496.5-927.9,972-1125.3c232-97.8,373.8-124.6,651.8-122.7c301,1.9,469.7,40.3,730.4,170.6c419.9,207.1,749.6,611.6,872.3,1071.7c53.7,199.4,59.4,586.6,11.5,782.2c-151.5,615.4-615.4,1087-1217.4,1242.3C5230.2,1778.4,4919.6,1795.7,4756.7,1770.8z M5220.6,605.2c116.9-61.3,184-124.6,245.4-237.7c47.9-86.3,55.6-122.7,55.6-245.4c0-122.7-7.7-159.1-55.6-245.4c-103.5-191.7-253.1-279.9-469.7-279.9c-216.6,0-364.3,88.2-469.7,279.9c-49.8,88.2-57.5,120.8-55.6,245.4c0,149.5,23,214.7,116.9,339.3c49.8,69,186,155.3,279.9,180.2C4963.7,666.5,5134.3,647.3,5220.6,605.2z"/><path d="M9777.6,1055.7c19.2-59.4-24.9-644.2-65.2-876.1c-82.5-460.1-201.3-830.1-421.8-1303.6c-67.1-141.9-122.7-262.7-126.5-266.5c-3.9-3.8-59.5,42.2-126.6,101.6c-67.1,57.5-195.5,151.4-289.5,205.1c-120.8,72.8-164.9,109.3-157.2,130.4c103.5,337.4,149.5,715.1,138,1133c-7.7,279.9-49.8,636.5-76.7,665.2c-3.8,3.8-13.4-120.8-19.2-276.1c-13.4-331.7-72.8-646.1-178.3-947.1c-74.8-216.6-197.5-496.5-216.7-496.5c-7.7,0-287.6,86.3-623.1,191.7c-335.5,107.3-619.2,189.8-628.8,187.9c-9.6-3.8-46-76.7-78.6-161c-122.7-302.9-350.8-611.6-598.1-810.9c-299.1-239.6-557.9-358.5-991.2-450.5c-26.8-5.8,960.5-1873,1054.4-1991.9c232-299.1,642.2-534.9,1087-628.8c170.6-38.3,584.7-32.6,753.4,7.6C8784.5-4394.6,9233.1-4040,9482.4-3530c136.1,278,174.4,429.4,185.9,740s-7.7,448.6-103.5,726.6l-69,201.3l92,228.1C9886.9-876.8,9975,10.9,9835.1,850.6c-17.3,99.7-38.3,195.5-49.9,210.9C9769.9,1084.5,9769.9,1082.5,9777.6,1055.7z"/><path d="M2159-598.8c-437.1-228.1-878-458.2-977.7-511.9c-467.8-255-799.4-784.1-866.5-1384.1c-88.2-776.4,325.9-1526,1029.5-1869.2c281.8-138.1,429.4-174.5,749.6-186c301-11.5,485,15.4,713.2,101.6c195.5,74.8,193.6,74.8,435.2-21.1c755.3-299.1,1644.9-387.3,2482.7-247.3c99.7,17.3,195.5,38.3,210.9,49.8c21.1,13.4,17.2,15.4-15.4,7.7c-70.9-13.4-626.9,23-828.2,57.5c-266.5,44.1-651.8,145.7-881.9,233.9c-166.8,61.4-697.8,299.1-726.6,324c-5.8,3.9,21.1,38.3,59.4,78.6c90.1,93.9,205.1,256.9,281.8,393c46,80.5,70.9,107.4,93.9,101.6c339.3-105.4,715.1-151.5,1134.9-140c279.9,7.7,636.5,49.9,665.2,76.7c3.8,3.9-116.9,13.4-266.5,19.2c-322.1,11.5-605.8,63.3-914.4,164.9c-228.1,74.7-538.7,208.9-538.7,230.1c0,7.6,86.3,287.6,191.7,625c107.4,335.5,189.8,617.3,187.9,626.9c-3.8,9.6-69,42.2-145.7,72.9c-653.7,255-1144.5,860.8-1273,1575.9C2956.5-192.3,2801.2-265.2,2159-598.8z"/></g></g>
</svg>